<svg version="1.1" xmlns="http://www.w3.org/2000/svg" xmlns:xlink="http://www.w3.org/1999/xlink" width="513.164px" height="513.164px" viewBox="0,0,256,256"><g fill="#73afb2" fill-rule="nonzero" stroke="none" stroke-width="1" stroke-linecap="butt" stroke-linejoin="miter" stroke-miterlimit="10" stroke-dasharray="" stroke-dashoffset="0" font-family="none" font-weight="none" font-size="none" text-anchor="none" style="mix-blend-mode: normal"><g transform="translate(-0.0005,-0.00025) scale(0.49887,0.49887)"><g><g><circle cx="221.673" cy="175.709" r="11.636"></circle></g></g><g><g><circle cx="291.491" cy="175.709" r="11.636"></circle></g></g><g><g><circle cx="210.036" cy="396.8" r="11.636"></circle></g></g><g><g><circle cx="303.127" cy="396.8" r="11.636"></circle></g></g><g><g><circle cx="210.036" cy="443.345" r="11.636"></circle></g></g><g><g><circle cx="303.127" cy="443.345" r="11.636"></circle></g></g><g><g><path d="M268.218,222.255h-23.273c-6.982,0 -11.636,4.655 -11.636,11.636c0,6.981 4.655,11.636 11.636,11.636h23.273c6.982,0 11.636,-4.655 11.636,-11.636c0,-6.981 -4.654,-11.636 -11.636,-11.636z"></path></g></g><g><g><path d="M407.855,343.273l-79.127,-16.291c-5.818,-1.164 -12.8,2.327 -13.964,9.309c-1.164,5.818 2.327,12.8 9.309,13.964l79.127,16.291c16.291,3.491 27.927,17.455 27.927,33.745v77.964c0,6.982 -4.655,11.636 -11.636,11.636h-325.818c-6.982,0 -11.636,-4.655 -11.636,-11.636v-77.964c0,-16.291 11.636,-31.418 27.927,-33.745l77.964,-15.127h91.927c6.982,0 11.636,-4.655 11.636,-11.636c0,-6.982 -4.655,-11.636 -11.636,-11.636h-93.091c-1.164,0 -1.164,0 -2.327,0l-79.127,15.127c-26.764,5.818 -46.545,29.091 -46.545,57.018v77.964c0,19.782 15.127,34.909 34.909,34.909h325.818c19.782,0 34.909,-15.127 34.909,-34.909v-77.964c-0.001,-27.928 -19.783,-52.365 -46.546,-57.019z"></path></g></g><g><g><path d="M358.982,152.436c-6.982,-1.164 -11.636,3.491 -12.8,10.473c-2.327,20.945 -5.818,43.055 -5.818,43.055c-1.164,15.127 -8.146,29.091 -17.455,40.727l-2.327,3.491c-15.127,19.782 -38.4,30.255 -64,30.255c-25.6,0 -48.873,-10.473 -64,-30.255l-2.327,-3.491c-9.309,-11.636 -16.291,-25.6 -17.455,-41.891c0,0 -9.309,-54.691 -9.309,-76.8v-29.091c0,-4.655 -2.327,-8.146 -5.818,-10.473c-10.473,-4.655 -17.455,-16.291 -17.455,-29.091c0,-19.782 15.127,-34.909 34.909,-34.909c6.982,0 11.636,-4.655 11.636,-11.636c0,-6.981 -4.655,-11.636 -11.636,-11.636c-32.582,0 -58.182,25.6 -58.182,58.182c0,18.618 9.309,36.073 23.273,46.545v23.273c0,23.273 8.145,77.964 9.309,79.127c2.327,19.782 10.473,38.4 22.109,53.527l2.327,3.491c19.782,24.436 50.036,38.4 82.618,38.4c32.582,0 61.673,-13.964 82.618,-38.4l2.327,-3.491c12.8,-15.127 19.782,-33.745 22.109,-52.364c0,0 3.491,-22.109 5.818,-44.218c1.165,-5.818 -3.489,-11.636 -10.471,-12.8z"></path></g></g><g><g><path d="M256.582,1.164c-32.582,0 -58.182,25.6 -58.182,58.182c0,6.982 4.655,11.636 11.636,11.636c6.982,0 11.636,-4.655 11.636,-11.636c0,-19.782 15.127,-34.909 34.909,-34.909c6.982,0 11.636,-4.655 11.636,-11.636c0,-6.981 -4.653,-11.637 -11.635,-11.637z"></path></g></g><g><g><path d="M338.036,0c-20.945,0 -40.727,11.636 -51.2,30.255c-4.655,10.473 -6.982,19.782 -6.982,29.091c0,6.982 4.655,11.636 11.636,11.636c6.981,0 11.636,-4.655 11.636,-11.636c0,-5.818 1.164,-11.636 4.655,-16.291c5.818,-11.636 17.455,-18.618 30.255,-18.618c19.782,0 34.909,15.127 34.909,34.909c0,12.8 -6.982,24.436 -17.455,30.255c-3.491,2.327 -5.818,5.818 -5.818,10.473v19.782c-48.873,10.473 -108.218,11.636 -161.745,4.655c-5.818,-1.164 -11.636,3.491 -12.8,9.309c-1.164,5.818 3.491,12.8 9.309,12.8c23.273,3.491 46.545,4.655 70.982,4.655c37.236,0 75.636,-3.491 108.218,-11.636c4.655,-1.164 9.309,-5.818 9.309,-11.636v-23.273c13.964,-10.473 23.273,-27.927 23.273,-46.545c0,-32.585 -25.6,-58.185 -58.182,-58.185z"></path></g></g></g></g></svg>