<svg version="1.1" xmlns="http://www.w3.org/2000/svg" xmlns:xlink="http://www.w3.org/1999/xlink" width="60px" height="60px" viewBox="0,0,256,256"><g fill="#73afb2" fill-rule="nonzero" stroke="none" stroke-width="1" stroke-linecap="butt" stroke-linejoin="miter" stroke-miterlimit="10" stroke-dasharray="" stroke-dashoffset="0" font-family="none" font-weight="none" font-size="none" text-anchor="none" style="mix-blend-mode: normal"><g transform="translate(0,0.00035) scale(4.26667,4.26667)"><g><path d="M59,55.5v-39h-12v39h-3v-31h-12v31h-3v-23h-12v23h-3v-14h-12v14h-1c-0.552,0 -1,0.447 -1,1c0,0.553 0.448,1 1,1h1h12h3h12h3h12h3h12c0.552,0 1,-0.447 1,-1c0,-0.553 -0.448,-1 -1,-1z"></path><path d="M8.03,27.83c0.169,0 0.342,-0.043 0.499,-0.134l36.269,-20.94l-2.27,4.99c-0.229,0.503 -0.007,1.096 0.496,1.324c0.134,0.062 0.275,0.09 0.414,0.09c0.38,0 0.743,-0.218 0.911,-0.586l3.562,-7.83c0.011,-0.025 0.009,-0.052 0.018,-0.078c0.019,-0.053 0.034,-0.104 0.044,-0.16c0.005,-0.028 0.021,-0.051 0.023,-0.08c0.001,-0.012 -0.004,-0.022 -0.003,-0.034c0.002,-0.038 -0.002,-0.073 -0.004,-0.111c-0.003,-0.055 -0.012,-0.107 -0.024,-0.162c-0.008,-0.038 -0.01,-0.077 -0.023,-0.114c-0.012,-0.036 -0.033,-0.066 -0.049,-0.101c-0.013,-0.023 -0.013,-0.05 -0.027,-0.074c-0.014,-0.024 -0.038,-0.038 -0.054,-0.061c-0.021,-0.031 -0.037,-0.064 -0.062,-0.092c-0.026,-0.03 -0.059,-0.051 -0.089,-0.078c-0.041,-0.037 -0.082,-0.071 -0.128,-0.101c-0.031,-0.02 -0.059,-0.042 -0.093,-0.059c-0.011,-0.005 -0.017,-0.015 -0.028,-0.02c-0.025,-0.011 -0.052,-0.009 -0.077,-0.018c-0.055,-0.02 -0.109,-0.034 -0.166,-0.044c-0.026,-0.005 -0.047,-0.02 -0.074,-0.022l-8.562,-0.83c-0.555,-0.056 -1.039,0.35 -1.092,0.898c-0.054,0.55 0.349,1.039 0.898,1.092l5.456,0.529l-36.266,20.94c-0.479,0.276 -0.642,0.888 -0.366,1.366c0.185,0.321 0.521,0.5 0.867,0.5z"></path></g><g font-family="Inter, apple-system, BlinkMacSystemFont, &quot;Helvetica Neue&quot;, &quot;Segoe UI&quot;, &quot;Fira Sans&quot;, Roboto, Oxygen, Ubuntu, &quot;Droid Sans&quot;, Arial, sans-serif" font-weight="400" font-size="16" text-anchor="start"></g><g font-family="Inter, apple-system, BlinkMacSystemFont, &quot;Helvetica Neue&quot;, &quot;Segoe UI&quot;, &quot;Fira Sans&quot;, Roboto, Oxygen, Ubuntu, &quot;Droid Sans&quot;, Arial, sans-serif" font-weight="400" font-size="16" text-anchor="start"></g><g font-family="Inter, apple-system, BlinkMacSystemFont, &quot;Helvetica Neue&quot;, &quot;Segoe UI&quot;, &quot;Fira Sans&quot;, Roboto, Oxygen, Ubuntu, &quot;Droid Sans&quot;, Arial, sans-serif" font-weight="400" font-size="16" text-anchor="start"></g><g font-family="Inter, apple-system, BlinkMacSystemFont, &quot;Helvetica Neue&quot;, &quot;Segoe UI&quot;, &quot;Fira Sans&quot;, Roboto, Oxygen, Ubuntu, &quot;Droid Sans&quot;, Arial, sans-serif" font-weight="400" font-size="16" text-anchor="start"></g><g font-family="Inter, apple-system, BlinkMacSystemFont, &quot;Helvetica Neue&quot;, &quot;Segoe UI&quot;, &quot;Fira Sans&quot;, Roboto, Oxygen, Ubuntu, &quot;Droid Sans&quot;, Arial, sans-serif" font-weight="400" font-size="16" text-anchor="start"></g><g font-family="Inter, apple-system, BlinkMacSystemFont, &quot;Helvetica Neue&quot;, &quot;Segoe UI&quot;, &quot;Fira Sans&quot;, Roboto, Oxygen, Ubuntu, &quot;Droid Sans&quot;, Arial, sans-serif" font-weight="400" font-size="16" text-anchor="start"></g><g font-family="Inter, apple-system, BlinkMacSystemFont, &quot;Helvetica Neue&quot;, &quot;Segoe UI&quot;, &quot;Fira Sans&quot;, Roboto, Oxygen, Ubuntu, &quot;Droid Sans&quot;, Arial, sans-serif" font-weight="400" font-size="16" text-anchor="start"></g><g font-family="Inter, apple-system, BlinkMacSystemFont, &quot;Helvetica Neue&quot;, &quot;Segoe UI&quot;, &quot;Fira Sans&quot;, Roboto, Oxygen, Ubuntu, &quot;Droid Sans&quot;, Arial, sans-serif" font-weight="400" font-size="16" text-anchor="start"></g><g font-family="Inter, apple-system, BlinkMacSystemFont, &quot;Helvetica Neue&quot;, &quot;Segoe UI&quot;, &quot;Fira Sans&quot;, Roboto, Oxygen, Ubuntu, &quot;Droid Sans&quot;, Arial, sans-serif" font-weight="400" font-size="16" text-anchor="start"></g><g font-family="Inter, apple-system, BlinkMacSystemFont, &quot;Helvetica Neue&quot;, &quot;Segoe UI&quot;, &quot;Fira Sans&quot;, Roboto, Oxygen, Ubuntu, &quot;Droid Sans&quot;, Arial, sans-serif" font-weight="400" font-size="16" text-anchor="start"></g><g font-family="Inter, apple-system, BlinkMacSystemFont, &quot;Helvetica Neue&quot;, &quot;Segoe UI&quot;, &quot;Fira Sans&quot;, Roboto, Oxygen, Ubuntu, &quot;Droid Sans&quot;, Arial, sans-serif" font-weight="400" font-size="16" text-anchor="start"></g><g font-family="Inter, apple-system, BlinkMacSystemFont, &quot;Helvetica Neue&quot;, &quot;Segoe UI&quot;, &quot;Fira Sans&quot;, Roboto, Oxygen, Ubuntu, &quot;Droid Sans&quot;, Arial, sans-serif" font-weight="400" font-size="16" text-anchor="start"></g><g font-family="Inter, apple-system, BlinkMacSystemFont, &quot;Helvetica Neue&quot;, &quot;Segoe UI&quot;, &quot;Fira Sans&quot;, Roboto, Oxygen, Ubuntu, &quot;Droid Sans&quot;, Arial, sans-serif" font-weight="400" font-size="16" text-anchor="start"></g><g font-family="Inter, apple-system, BlinkMacSystemFont, &quot;Helvetica Neue&quot;, &quot;Segoe UI&quot;, &quot;Fira Sans&quot;, Roboto, Oxygen, Ubuntu, &quot;Droid Sans&quot;, Arial, sans-serif" font-weight="400" font-size="16" text-anchor="start"></g><g font-family="Inter, apple-system, BlinkMacSystemFont, &quot;Helvetica Neue&quot;, &quot;Segoe UI&quot;, &quot;Fira Sans&quot;, Roboto, Oxygen, Ubuntu, &quot;Droid Sans&quot;, Arial, sans-serif" font-weight="400" font-size="16" text-anchor="start"></g></g></g></svg>