<?xml version="1.0" encoding="UTF-8"?>
<svg xmlns="http://www.w3.org/2000/svg" xmlns:xlink="http://www.w3.org/1999/xlink" width="100px" height="100px" viewBox="0 0 100 100" version="1.1">
<g id="surface1">
<path style=" stroke:none;fill-rule:evenodd;fill:rgb(16.862745%,39.215686%,41.960784%);fill-opacity:1;" d="M 7.296875 83.390625 C 7.296875 87.40625 10.550781 90.65625 14.566406 90.65625 L 38.1875 90.65625 C 42.203125 90.65625 45.457031 87.40625 45.457031 83.390625 L 45.457031 54.316406 C 45.457031 50.300781 42.203125 47.046875 38.1875 47.046875 L 26.523438 47.046875 C 24.503906 47.046875 22.890625 45.410156 22.890625 43.414062 C 22.890625 42.757812 23.050781 42.304688 23.050781 42.304688 C 25.703125 33.507812 32.410156 26.460938 41.003906 23.335938 L 41.039062 23.296875 C 43.640625 22.191406 45.457031 19.609375 45.457031 16.609375 C 45.457031 12.59375 42.203125 9.34375 38.1875 9.34375 C 37.207031 9.34375 36.28125 9.542969 35.425781 9.886719 L 35.097656 10.015625 C 18.835938 16.355469 7.296875 32.164062 7.296875 50.679688 Z M 54.542969 83.390625 C 54.542969 87.40625 57.796875 90.65625 61.8125 90.65625 L 85.433594 90.65625 C 89.449219 90.65625 92.703125 87.40625 92.703125 83.390625 L 92.703125 54.316406 C 92.703125 50.300781 89.449219 47.046875 85.433594 47.046875 L 73.769531 47.046875 C 71.75 47.046875 70.132812 45.410156 70.132812 43.414062 C 70.132812 42.742188 70.296875 42.304688 70.296875 42.304688 C 72.949219 33.507812 79.652344 26.460938 88.25 23.335938 L 88.285156 23.296875 C 90.882812 22.191406 92.703125 19.609375 92.703125 16.609375 C 92.703125 12.59375 89.449219 9.34375 85.433594 9.34375 C 84.453125 9.34375 83.527344 9.542969 82.671875 9.886719 L 82.34375 10.015625 C 66.082031 16.355469 54.542969 32.164062 54.542969 50.679688 Z M 54.542969 83.390625 "/>
</g>
</svg>
