<svg version="1.1" xmlns="http://www.w3.org/2000/svg" xmlns:xlink="http://www.w3.org/1999/xlink" width="225px" height="225px" viewBox="0,0,256,256"><g fill="#73afb2" fill-rule="nonzero" stroke="none" stroke-width="1" stroke-linecap="butt" stroke-linejoin="miter" stroke-miterlimit="10" stroke-dasharray="" stroke-dashoffset="0" font-family="none" font-weight="none" font-size="none" text-anchor="none" style="mix-blend-mode: normal"><g transform="scale(1.13778,1.13778)"><path d="M34.642,152.451l-20.645,20.645l37.908,37.908l20.644,-20.645c4.225,2.17 8.619,3.99 13.146,5.443v29.198h53.61v-29.198c4.527,-1.454 8.921,-3.273 13.145,-5.443l20.644,20.645l37.909,-37.908l-20.646,-20.646c2.17,-4.225 3.989,-8.618 5.443,-13.145h29.2v-53.61h-29.199c-1.454,-4.527 -3.273,-8.92 -5.443,-13.145l20.646,-20.646l-37.908,-37.908l-20.645,20.645c-4.225,-2.17 -8.619,-3.99 -13.145,-5.443v-29.198h-53.61v29.198c-4.527,1.454 -8.921,3.273 -13.146,5.443l-20.646,-20.644l-37.907,37.908l20.645,20.645c-2.17,4.225 -3.99,8.619 -5.443,13.146h-29.199v53.609h29.198c1.454,4.526 3.273,8.921 5.444,13.146zM15,100.695h25.728l1.412,-5.696c1.738,-7.015 4.508,-13.703 8.231,-19.877l3.031,-5.026l-18.193,-18.191l16.695,-16.695l18.192,18.192l5.026,-3.031c6.174,-3.723 12.862,-6.493 19.877,-8.231l5.696,-1.412v-25.728h23.61v25.728l5.695,1.412c7.016,1.739 13.703,4.508 19.877,8.232l5.026,3.031l18.191,-18.192l16.695,16.695l-18.194,18.192l3.031,5.026c3.723,6.173 6.492,12.86 8.231,19.876l1.411,5.696h25.732v23.609h-25.73l-1.411,5.696c-1.739,7.016 -4.509,13.703 -8.231,19.876l-3.031,5.026l18.194,18.193l-16.696,16.695l-18.19,-18.192l-5.026,3.031c-6.173,3.723 -12.86,6.492 -19.877,8.231l-5.695,1.412v25.727h-23.61v-25.728l-5.696,-1.412c-7.015,-1.738 -13.703,-4.508 -19.877,-8.231l-5.026,-3.031l-18.193,18.192l-16.695,-16.694l18.192,-18.192l-3.031,-5.026c-3.723,-6.174 -6.493,-12.862 -8.231,-19.877l-1.412,-5.696h-25.728zM112.5,153.25c22.47,0 40.75,-18.28 40.75,-40.75c0,-22.47 -18.28,-40.75 -40.75,-40.75c-22.47,0 -40.75,18.28 -40.75,40.75c0,22.47 18.28,40.75 40.75,40.75zM112.5,86.75c14.198,0 25.75,11.551 25.75,25.75c0,14.199 -11.552,25.75 -25.75,25.75c-14.199,0 -25.75,-11.551 -25.75,-25.75c0,-14.199 11.551,-25.75 25.75,-25.75z"></path><g font-family="Inter, apple-system, BlinkMacSystemFont, &quot;Helvetica Neue&quot;, &quot;Segoe UI&quot;, &quot;Fira Sans&quot;, Roboto, Oxygen, Ubuntu, &quot;Droid Sans&quot;, Arial, sans-serif" font-weight="400" font-size="16" text-anchor="start"></g><g font-family="Inter, apple-system, BlinkMacSystemFont, &quot;Helvetica Neue&quot;, &quot;Segoe UI&quot;, &quot;Fira Sans&quot;, Roboto, Oxygen, Ubuntu, &quot;Droid Sans&quot;, Arial, sans-serif" font-weight="400" font-size="16" text-anchor="start"></g><g font-family="Inter, apple-system, BlinkMacSystemFont, &quot;Helvetica Neue&quot;, &quot;Segoe UI&quot;, &quot;Fira Sans&quot;, Roboto, Oxygen, Ubuntu, &quot;Droid Sans&quot;, Arial, sans-serif" font-weight="400" font-size="16" text-anchor="start"></g><g font-family="Inter, apple-system, BlinkMacSystemFont, &quot;Helvetica Neue&quot;, &quot;Segoe UI&quot;, &quot;Fira Sans&quot;, Roboto, Oxygen, Ubuntu, &quot;Droid Sans&quot;, Arial, sans-serif" font-weight="400" font-size="16" text-anchor="start"></g><g font-family="Inter, apple-system, BlinkMacSystemFont, &quot;Helvetica Neue&quot;, &quot;Segoe UI&quot;, &quot;Fira Sans&quot;, Roboto, Oxygen, Ubuntu, &quot;Droid Sans&quot;, Arial, sans-serif" font-weight="400" font-size="16" text-anchor="start"></g><g font-family="Inter, apple-system, BlinkMacSystemFont, &quot;Helvetica Neue&quot;, &quot;Segoe UI&quot;, &quot;Fira Sans&quot;, Roboto, Oxygen, Ubuntu, &quot;Droid Sans&quot;, Arial, sans-serif" font-weight="400" font-size="16" text-anchor="start"></g><g font-family="Inter, apple-system, BlinkMacSystemFont, &quot;Helvetica Neue&quot;, &quot;Segoe UI&quot;, &quot;Fira Sans&quot;, Roboto, Oxygen, Ubuntu, &quot;Droid Sans&quot;, Arial, sans-serif" font-weight="400" font-size="16" text-anchor="start"></g><g font-family="Inter, apple-system, BlinkMacSystemFont, &quot;Helvetica Neue&quot;, &quot;Segoe UI&quot;, &quot;Fira Sans&quot;, Roboto, Oxygen, Ubuntu, &quot;Droid Sans&quot;, Arial, sans-serif" font-weight="400" font-size="16" text-anchor="start"></g><g font-family="Inter, apple-system, BlinkMacSystemFont, &quot;Helvetica Neue&quot;, &quot;Segoe UI&quot;, &quot;Fira Sans&quot;, Roboto, Oxygen, Ubuntu, &quot;Droid Sans&quot;, Arial, sans-serif" font-weight="400" font-size="16" text-anchor="start"></g><g font-family="Inter, apple-system, BlinkMacSystemFont, &quot;Helvetica Neue&quot;, &quot;Segoe UI&quot;, &quot;Fira Sans&quot;, Roboto, Oxygen, Ubuntu, &quot;Droid Sans&quot;, Arial, sans-serif" font-weight="400" font-size="16" text-anchor="start"></g><g font-family="Inter, apple-system, BlinkMacSystemFont, &quot;Helvetica Neue&quot;, &quot;Segoe UI&quot;, &quot;Fira Sans&quot;, Roboto, Oxygen, Ubuntu, &quot;Droid Sans&quot;, Arial, sans-serif" font-weight="400" font-size="16" text-anchor="start"></g><g font-family="Inter, apple-system, BlinkMacSystemFont, &quot;Helvetica Neue&quot;, &quot;Segoe UI&quot;, &quot;Fira Sans&quot;, Roboto, Oxygen, Ubuntu, &quot;Droid Sans&quot;, Arial, sans-serif" font-weight="400" font-size="16" text-anchor="start"></g><g font-family="Inter, apple-system, BlinkMacSystemFont, &quot;Helvetica Neue&quot;, &quot;Segoe UI&quot;, &quot;Fira Sans&quot;, Roboto, Oxygen, Ubuntu, &quot;Droid Sans&quot;, Arial, sans-serif" font-weight="400" font-size="16" text-anchor="start"></g><g font-family="Inter, apple-system, BlinkMacSystemFont, &quot;Helvetica Neue&quot;, &quot;Segoe UI&quot;, &quot;Fira Sans&quot;, Roboto, Oxygen, Ubuntu, &quot;Droid Sans&quot;, Arial, sans-serif" font-weight="400" font-size="16" text-anchor="start"></g><g font-family="Inter, apple-system, BlinkMacSystemFont, &quot;Helvetica Neue&quot;, &quot;Segoe UI&quot;, &quot;Fira Sans&quot;, Roboto, Oxygen, Ubuntu, &quot;Droid Sans&quot;, Arial, sans-serif" font-weight="400" font-size="16" text-anchor="start"></g></g></g></svg>